<mxfile host="app.diagrams.net" agent="Mozilla/5.0 (X11; Linux x86_64) AppleWebKit/537.36 (KHTML, like Gecko) Chrome/131.0.0.0 Safari/537.36" version="24.8.4">
  <diagram name="Page-1" id="h1AktZE3Cd6ZfsBBBjjw">
    <mxGraphModel dx="1198" dy="717" grid="1" gridSize="10" guides="1" tooltips="1" connect="1" arrows="1" fold="1" page="1" pageScale="1" pageWidth="850" pageHeight="1100" math="0" shadow="0">
      <root>
        <mxCell id="0" />
        <mxCell id="1" parent="0" />
        <mxCell id="3" value="Node" style="ellipse;aspect=fixed;strokeWidth=2;whiteSpace=wrap;" parent="1" vertex="1">
          <mxGeometry x="110" y="100" width="210" height="210" as="geometry" />
        </mxCell>
        <mxCell id="MoeTJl7qgL5bPx4-mJLj-6" value="topic" style="swimlane;fontStyle=0;childLayout=stackLayout;horizontal=1;startSize=30;horizontalStack=0;resizeParent=1;resizeParentMax=0;resizeLast=0;collapsible=1;marginBottom=0;whiteSpace=wrap;html=1;" vertex="1" parent="1">
          <mxGeometry x="520" y="145" width="140" height="120" as="geometry" />
        </mxCell>
        <mxCell id="MoeTJl7qgL5bPx4-mJLj-7" value="Item 1" style="text;strokeColor=none;fillColor=none;align=left;verticalAlign=middle;spacingLeft=4;spacingRight=4;overflow=hidden;points=[[0,0.5],[1,0.5]];portConstraint=eastwest;rotatable=0;whiteSpace=wrap;html=1;" vertex="1" parent="MoeTJl7qgL5bPx4-mJLj-6">
          <mxGeometry y="30" width="140" height="30" as="geometry" />
        </mxCell>
        <mxCell id="MoeTJl7qgL5bPx4-mJLj-8" value="Item 2" style="text;strokeColor=none;fillColor=none;align=left;verticalAlign=middle;spacingLeft=4;spacingRight=4;overflow=hidden;points=[[0,0.5],[1,0.5]];portConstraint=eastwest;rotatable=0;whiteSpace=wrap;html=1;" vertex="1" parent="MoeTJl7qgL5bPx4-mJLj-6">
          <mxGeometry y="60" width="140" height="30" as="geometry" />
        </mxCell>
        <mxCell id="MoeTJl7qgL5bPx4-mJLj-9" value="Item 3" style="text;strokeColor=none;fillColor=none;align=left;verticalAlign=middle;spacingLeft=4;spacingRight=4;overflow=hidden;points=[[0,0.5],[1,0.5]];portConstraint=eastwest;rotatable=0;whiteSpace=wrap;html=1;" vertex="1" parent="MoeTJl7qgL5bPx4-mJLj-6">
          <mxGeometry y="90" width="140" height="30" as="geometry" />
        </mxCell>
        <mxCell id="MoeTJl7qgL5bPx4-mJLj-11" value="publish" style="text;html=1;align=center;verticalAlign=middle;resizable=0;points=[];autosize=1;strokeColor=none;fillColor=none;" vertex="1" parent="1">
          <mxGeometry x="390" y="210" width="60" height="30" as="geometry" />
        </mxCell>
        <mxCell id="MoeTJl7qgL5bPx4-mJLj-12" style="edgeStyle=orthogonalEdgeStyle;rounded=0;orthogonalLoop=1;jettySize=auto;html=1;exitX=0;exitY=0.5;exitDx=0;exitDy=0;entryX=1.011;entryY=0.429;entryDx=0;entryDy=0;entryPerimeter=0;" edge="1" parent="1" source="MoeTJl7qgL5bPx4-mJLj-7" target="3">
          <mxGeometry relative="1" as="geometry" />
        </mxCell>
        <mxCell id="MoeTJl7qgL5bPx4-mJLj-13" style="edgeStyle=orthogonalEdgeStyle;rounded=0;orthogonalLoop=1;jettySize=auto;html=1;entryX=0.003;entryY=0.05;entryDx=0;entryDy=0;entryPerimeter=0;exitX=1.002;exitY=0.508;exitDx=0;exitDy=0;exitPerimeter=0;" edge="1" parent="1" source="3" target="MoeTJl7qgL5bPx4-mJLj-8">
          <mxGeometry relative="1" as="geometry" />
        </mxCell>
        <mxCell id="MoeTJl7qgL5bPx4-mJLj-14" value="subscribe" style="text;html=1;align=center;verticalAlign=middle;resizable=0;points=[];autosize=1;strokeColor=none;fillColor=none;" vertex="1" parent="1">
          <mxGeometry x="385" y="160" width="70" height="30" as="geometry" />
        </mxCell>
        <mxCell id="MoeTJl7qgL5bPx4-mJLj-15" value="" style="shape=flexArrow;endArrow=classic;html=1;rounded=0;" edge="1" parent="1">
          <mxGeometry width="50" height="50" relative="1" as="geometry">
            <mxPoint x="430" y="300" as="sourcePoint" />
            <mxPoint x="430" y="370" as="targetPoint" />
          </mxGeometry>
        </mxCell>
        <mxCell id="MoeTJl7qgL5bPx4-mJLj-16" value="Abstraction" style="text;html=1;align=center;verticalAlign=middle;resizable=0;points=[];autosize=1;strokeColor=none;fillColor=none;" vertex="1" parent="1">
          <mxGeometry x="455" y="310" width="80" height="30" as="geometry" />
        </mxCell>
        <mxCell id="MoeTJl7qgL5bPx4-mJLj-17" value="Node" style="ellipse;aspect=fixed;strokeWidth=2;whiteSpace=wrap;" vertex="1" parent="1">
          <mxGeometry x="320" y="440" width="210" height="210" as="geometry" />
        </mxCell>
        <mxCell id="MoeTJl7qgL5bPx4-mJLj-18" style="edgeStyle=orthogonalEdgeStyle;rounded=0;orthogonalLoop=1;jettySize=auto;html=1;curved=1;exitX=0.935;exitY=0.245;exitDx=0;exitDy=0;exitPerimeter=0;entryX=0.996;entryY=0.657;entryDx=0;entryDy=0;entryPerimeter=0;" edge="1" parent="1" source="MoeTJl7qgL5bPx4-mJLj-17" target="MoeTJl7qgL5bPx4-mJLj-17">
          <mxGeometry relative="1" as="geometry">
            <Array as="points">
              <mxPoint x="600" y="492" />
              <mxPoint x="600" y="578" />
            </Array>
          </mxGeometry>
        </mxCell>
        <mxCell id="MoeTJl7qgL5bPx4-mJLj-19" value="topic" style="text;html=1;align=center;verticalAlign=middle;resizable=0;points=[];autosize=1;strokeColor=none;fillColor=none;" vertex="1" parent="1">
          <mxGeometry x="565" y="480" width="50" height="30" as="geometry" />
        </mxCell>
      </root>
    </mxGraphModel>
  </diagram>
</mxfile>
